<?xml version="1.0" encoding="UTF-8"?>
<svg width="24px" height="25px" viewBox="0 0 24 25" version="1.1" xmlns="http://www.w3.org/2000/svg" xmlns:xlink="http://www.w3.org/1999/xlink">
    <title>加油练</title>
    <g id="学习机二期" stroke="none" stroke-width="1" fill="none" fill-rule="evenodd">
        <g id="课程讲义" transform="translate(-900.000000, -33.000000)">
            <g id="编组-3" transform="translate(900.000000, 33.718750)">
                <rect id="矩形" x="0" y="0" width="24" height="24"></rect>
                <g id="编组-17" transform="translate(2.961510, 2.756642)">
                    <rect id="矩形" fill="#22224C" x="12.8208329" y="5.17678626" width="3.28672358" height="2.13637032" rx="0.657344715"></rect>
                    <path d="M3.36893223,14.7902561 L2.64541166,14.7902561 C1.18439114,14.7902561 0,13.4658914 0,11.8322049 L0,6.24477479 C0,4.61108822 1.18439114,3.28672358 2.64541166,3.28672358 L15.431568,3.28672358 C16.8925885,3.28672358 18.0769797,4.61108822 18.0769797,6.24477479 L18.0769797,11.8322049 C18.0769797,13.4658914 16.8925885,14.7902561 15.431568,14.7902561 L14.7426275,14.7902561" id="路径" stroke="#22224C" stroke-width="1.5"></path>
                    <line x1="1.98187316" y1="11.2761996" x2="16.1890941" y2="11.2761996" id="路径-2" stroke="#22224C" stroke-width="1.5" stroke-linecap="round"></line>
                    <path d="M14.3807211,11.7911196 L14.3807211,17.3470401 C14.3807211,17.9764658 13.8704708,18.4867162 13.2410451,18.4867162 L4.83593457,18.4867162 C4.20650889,18.4867162 3.69625856,17.9764658 3.69625856,17.3470401 L3.69625856,11.7911196" id="路径" stroke="#22224C" stroke-width="1.5"></path>
                    <path d="M2.87588313,3.94406829 L2.87588313,1.97203415 C2.87588313,0.882909761 3.75879289,0 4.84791727,0 L13.2290624,0 C14.3181868,0 15.2010965,0.882909761 15.2010965,1.97203415 L15.2010965,3.94406829" id="路径" stroke="#22224C" stroke-width="1.5"></path>
                </g>
            </g>
        </g>
    </g>
</svg>